<svg width="200" height="80" viewBox="0 0 864 214" xmlns="http://www.w3.org/2000/svg" xml:space="preserve"
    style="fill-rule:evenodd;clip-rule:evenodd;stroke-linejoin:round;stroke-miterlimit:2">
    <g clip-path="url(#_clip1)">
        <g id="dark-variant">
            <path style="fill:none" d="M-103.246-106.187h1071.14v427.811h-1071.14z" />
            <g id="Text---blue">
                <path
                    d="M271.039 162.384c16.496 0 31.089-5.922 41.239-17.555l-16.282-16.282c-6.133 6.977-15.016 10.572-25.168 10.572-14.169 0-24.107-7.4-27.493-20.091l74.654-.211c1.058-4.652 1.48-8.458 1.48-12.055 0-29.395-21.148-50.966-50.333-50.966-30.24 0-53.716 23.051-53.716 53.294 0 30.876 23.687 53.294 55.619 53.294Zm-1.903-83.537c12.902 0 20.938 6.769 23.687 19.457h-49.488c3.386-12.055 12.691-19.246 25.801-19.457Z"
                    style="fill:var(--color-primary);fill-rule:nonzero" />
                <path
                    d="M316.931 160.267h31.3l21.782-32.778 21.36 32.778h32.567l-36.375-52.658 34.47-49.486h-31.087l-19.454 30.029-19.668-30.029h-32.779l35.104 49.909-37.22 52.235ZM473.849 162.384c12.054 0 22.418-4.442 29.606-11.844v9.727h27.493V58.123h-27.493v9.728c-7.188-7.403-17.552-11.842-29.817-11.842-27.704 0-48.853 23.049-48.853 53.292 0 30.242 21.149 53.083 49.064 53.083Zm5.075-25.59c-15.227 0-25.799-11.419-25.799-27.704 0-16.072 10.572-27.493 25.799-27.493 15.438 0 26.012 11.421 26.012 27.493 0 16.285-10.574 27.704-26.012 27.704ZM590.586 162.595c24.743 0 40.181-12.477 40.181-32.568 0-37.856-51.178-28.551-51.178-43.566 0-4.653 4.442-7.189 12.689-7.189 8.882 0 16.918 3.172 23.051 10.785l16.707-16.707c-8.883-11.632-23.051-17.765-39.97-17.765-24.32 0-39.336 12.688-39.336 32.145 0 37.431 51.391 26.859 51.391 43.564 0 5.077-4.866 7.614-13.746 7.614-11.421 0-20.726-4.017-27.704-11.842l-16.496 16.705c10.152 11.844 26.857 18.824 44.411 18.824ZM663.334 41.627c9.094 0 15.649-6.978 15.649-15.86 0-8.883-6.555-15.861-15.649-15.861-9.093 0-15.649 6.978-15.649 15.861 0 8.882 6.556 15.86 15.649 15.86Zm-13.957 118.64h27.915V58.123h-27.915v102.144ZM701.824 160.267h27.704V99.996c0-11.844 8.46-18.821 19.456-18.821 10.997 0 19.455 6.977 19.455 18.821v60.271h27.704V99.996c0-11.844 8.46-18.821 19.457-18.821s19.457 6.977 19.457 18.821v60.271h27.704V95.554c0-24.531-17.554-39.545-40.183-39.545-13.745 0-25.588 5.497-33.413 15.438-6.768-9.941-17.976-15.438-31.087-15.438-11.421 0-21.571 4.017-28.55 10.997v-8.883h-27.704v102.144Z"
                    style="fill:var(--color-primary);fill-rule:nonzero" />
            </g>
            <g id="Logo---bright-BG">
                <path
                    d="m69.31 136.241 53.911-53.911a37.687 37.687 0 0 0-11.064 27.064c-.041 10.074 4.041 19.823 11.091 26.874l23.728 23.728-53.897 53.897-23.728-23.728c-7.051-7.051-11.132-16.8-11.091-26.874a37.676 37.676 0 0 1 11.05-27.05Z"
                    style="fill:url(#_Gradient1)" />
                <path
                    d="m114.643 78.552-53.91 53.911a37.687 37.687 0 0 0 11.064-27.064c.041-10.074-4.041-19.823-11.091-26.874L36.977 54.797 90.874.9l23.729 23.728c7.05 7.051 11.132 16.8 11.091 26.874a37.673 37.673 0 0 1-11.051 27.05Z"
                    style="fill:url(#_Gradient2)" />
                <path
                    d="M122.901 82.722a38.11 38.11 0 0 1 53.529.365l6.749 6.749-53.165 53.165-6.748-6.749a38.11 38.11 0 0 1-.365-53.53ZM61.077 132.055a38.112 38.112 0 0 1-53.53-.365l-6.748-6.748 53.165-53.165 6.748 6.748a38.112 38.112 0 0 1 .365 53.53Z"
                    style="fill:var(--color-primary)" />
            </g>
        </g>
    </g>
    <defs>
        <linearGradient id="_Gradient1" x1="0" y1="0" x2="1" y2="0" gradientUnits="userSpaceOnUse"
            gradientTransform="scale(136.3712 -136.3712) rotate(75.489 1.35 -.348)">
            <stop offset="0" style="stop-color:#0cc8cf;stop-opacity:1" />
            <stop offset=".6" style="stop-color:#0daab4;stop-opacity:1" />
            <stop offset=".81" style="stop-color:#106476;stop-opacity:1" />
            <stop offset="1" style="stop-color:#131d36;stop-opacity:1" />
        </linearGradient>
        <linearGradient id="_Gradient2" x1="0" y1="0" x2="1" y2="0" gradientUnits="userSpaceOnUse"
            gradientTransform="scale(-136.3712 136.3712) rotate(75.489 -.341 -.432)">
            <stop offset="0" style="stop-color:#0cc8cf;stop-opacity:1" />
            <stop offset=".6" style="stop-color:#0daab4;stop-opacity:1" />
            <stop offset=".81" style="stop-color:#106476;stop-opacity:1" />
            <stop offset="1" style="stop-color:#131d36;stop-opacity:1" />
        </linearGradient>
    </defs>
</svg>