<?xml version="1.0" encoding="UTF-8" standalone="no"?><!DOCTYPE svg PUBLIC "-//W3C//DTD SVG 1.1//EN" "http://www.w3.org/Graphics/SVG/1.1/DTD/svg11.dtd"><svg width="100%" height="100%" viewBox="0 0 512 512" version="1.1" xmlns="http://www.w3.org/2000/svg" xmlns:xlink="http://www.w3.org/1999/xlink" xml:space="preserve" xmlns:serif="http://www.serif.com/" style="fill-rule:evenodd;clip-rule:evenodd;stroke-linejoin:round;stroke-miterlimit:2;"><g id="Logo---bright-BG" serif:id="Logo - bright BG"><g><path d="M201.485,325.337c0,-0 146.769,-146.769 129.592,-129.592c-17.209,17.209 -26.824,40.513 -26.596,65.056c-0.098,24.217 9.713,47.652 26.661,64.601l57.039,57.039l-129.559,129.559l-57.039,-57.039c-16.949,-16.948 -26.76,-40.383 -26.662,-64.6c-0.228,-24.543 9.387,-47.848 26.564,-65.024Z" style="fill:url(#_Linear1);"/></g><g><path d="M310.458,186.663c-0,0 -146.769,146.769 -129.592,129.592c17.209,-17.209 26.824,-40.513 26.596,-65.056c0.098,-24.217 -9.713,-47.652 -26.661,-64.601l-57.039,-57.039l129.559,-129.559l57.039,57.039c16.949,16.948 26.759,40.383 26.662,64.6c0.228,24.543 -9.387,47.848 -26.564,65.024Z" style="fill:url(#_Linear2);"/></g><path d="M330.307,196.687c17.094,-16.634 40.013,-25.957 63.895,-25.957c24.297,0 47.6,9.653 64.781,26.835l16.223,16.222l-127.8,127.799l-16.222,-16.222c-17.182,-17.182 -26.834,-40.485 -26.834,-64.784c-0,-23.881 9.324,-46.799 25.957,-63.893Z" style="fill:#131d36;"/><g><path d="M181.693,315.275c-17.094,16.634 -40.013,25.956 -63.895,25.956c-24.297,0 -47.6,-9.652 -64.781,-26.834l-16.223,-16.222l127.8,-127.799l16.222,16.222c17.182,17.182 26.834,40.485 26.834,64.784c0,23.881 -9.324,46.799 -25.957,63.893Z" style="fill:#131d36;"/></g></g><defs><linearGradient id="_Linear1" x1="0" y1="0" x2="1" y2="0" gradientUnits="userSpaceOnUse" gradientTransform="matrix(82.1381,-317.355,-317.355,-82.1381,256.144,511.87)"><stop offset="0" style="stop-color:#0cc8cf;stop-opacity:1"/><stop offset="0.6" style="stop-color:#0daab4;stop-opacity:1"/><stop offset="0.81" style="stop-color:#106476;stop-opacity:1"/><stop offset="1" style="stop-color:#131d36;stop-opacity:1"/></linearGradient><linearGradient id="_Linear2" x1="0" y1="0" x2="1" y2="0" gradientUnits="userSpaceOnUse" gradientTransform="matrix(-82.1381,317.355,317.355,82.1381,255.798,0.130374)"><stop offset="0" style="stop-color:#0cc8cf;stop-opacity:1"/><stop offset="0.6" style="stop-color:#0daab4;stop-opacity:1"/><stop offset="0.81" style="stop-color:#106476;stop-opacity:1"/><stop offset="1" style="stop-color:#131d36;stop-opacity:1"/></linearGradient></defs></svg>